<?xml version="1.0" encoding="utf-8"?>
<!-- Generator: Adobe Illustrator 27.1.1, SVG Export Plug-In . SVG Version: 6.00 Build 0)  -->
<svg version="1.1" id="Layer_1" xmlns="http://www.w3.org/2000/svg" xmlns:xlink="http://www.w3.org/1999/xlink" x="0px" y="0px"
	 viewBox="0 0 1280 800" style="enable-background:new 0 0 1280 800;" xml:space="preserve">
<style type="text/css">
	.st0{fill:#181818;}
</style>
<path class="st0" d="M681,366.3l20.6-59.9c35.3-0.1,70.5-0.4,105.7-0.8l20.8,60.3c30.7-0.1,61.7,0.4,92.3,0.3L798.2,31.5
	c-14.5,0.6-73.5,2.1-87.4,2.5l-92.2,260.2c-37.8,0-73.2-0.3-111.7-0.6v-67.3l68.9,0.8v-60.7l-68.9-1v-64.6
	c74.9,1.7,109.4,1.4,109.4,1.4L602.2,30c0,0-89.6-1.5-187.4-5.6v341.5c19.4,0.1,116.2,0.4,178.1,0.5v0c11.3,0,22,0,32.6,0
	c3,0,5.8,0,8.2,0C649.2,366.3,664.5,366.3,681,366.3z M786.4,244.8c-21.3,0.3-42.6,0.6-64,0.8l32.1-93.4L786.4,244.8z"/>
<path class="st0" d="M957.9,366.1c30.6-0.2,61.2,0.1,91.8-0.2l0.4-275.9c33.4-2.7,66.8-5.6,100.1-8.9L1136.1,5
	c-87.8,10.5-175.6,18.1-263.8,23L858,101.9c33.3-1.4,66.6-3.1,99.9-5.2V366.1z"/>
<path class="st0" d="M236.6,105.3c0-41.6,88.8-30.4,129.8-6.2l3.8-82.1C360.5,14,321.3,5,274.5,5c-66.2,0-123.9,39.1-123.9,101.3
	c0,110.9,151.3,118.5,151.3,163c0,58.5-100.3,26-151.3-22.3v93.5c0,0,37.5,34.9,112.1,34.9c82.2,0,123.9-53.6,123.9-111.3
	C386.7,151.8,236.6,151.3,236.6,105.3z"/>
<path class="st0" d="M1196,795l-121.2-206.5L1182,423.1h-103.5l-94,147.4c0.4-49-0.3-98.1,0-147.2c-31-0.1-60.8-0.1-91.9-0.2
	c0,90,0,254.2,0,344.2c0,0,60.7,3.7,91.9,6.2c0-53.1,0-106,0-159.1l90.7,166.6C1120.6,785.7,1161.7,790.5,1196,795z"/>
<path class="st0" d="M507.1,620.8c22.9-0.4,68.6-0.8,68.6-0.8v-61.3c0,0-45.8,0.4-68.6,0.6c0-21.6,0-43.2,0-64.8
	c64.2,0,109.3,0.4,109.3,0.4l-14.2-71.2H415v341.7c43.1-2.8,161.7-5.5,201.9-5.6c4.7-24.1,9.5-48.3,14.2-72.4
	c-41.4,0-82.8,0.5-124.1,1.4C507.1,665.9,507.1,643.7,507.1,620.8z"/>
<path class="st0" d="M746.2,620.1c21.3,0.3,42.6,0.7,63.9,1.2c0-20.4,0-40.8,0-61.2c-21.3-0.4-42.6-0.6-63.9-0.8
	c0-21.7,0-42.7,0-64.4l109.8,0.7l-14.2-71.9c0,0-125.2-0.1-187.7-0.1v336.1c63.7,0,133.2,2.1,201.5,5.6l14.8-72.9
	c-36-1.3-91.5-3.1-124.3-3.8C746.2,665.8,746.2,642.9,746.2,620.1z"/>
<path class="st0" d="M237.4,628.7l55.9-2.7l0,71.2c-83.9,7.6-118.4-20.2-118.4-103.3c0-77.1,62.4-96.3,119.8-96.3
	c50.6,0,77.5,5.6,77.5,5.6l-15.2-79.8c-13.4-0.7-37-1.4-77.2-1.4c-92.9,0-195.8,44.4-195.8,185c0,118.3,80.9,178.5,183.5,168.9
	c72.3-6.8,104.8-8.2,104.8-8.2v-206l-120.7,2.7L237.4,628.7z"/>
</svg>
